<svg version="1" xmlns="http://www.w3.org/2000/svg" width="933.333" height="933.333" viewBox="0 0 700.000000 700.000000"><path d="M0 350v350h700V0H0v350zm538-162.2c1.3 1 3 3.8 3.7 6.1 3 10.4-7 18.5-17.4 14.2-5.7-2.3-8.5-12-5.1-17.3 3.7-5.6 13.2-7.1 18.8-3zm-357.9 15.9c0 .5.2 1.5.3 2.3.3 1.4.8 5.2 2.2 17.2.4 2.9.7 5.4.8 5.4 0 .1 3.9.4 8.6.7 10.5.8 12.7 1.2 18.3 3.6 5.5 2.4 9.8 6.5 12.8 12.2 1.9 3.6 2.3 6 2.4 13.4 0 7.9-.3 9.5-2.5 13-1.4 2.2-3.6 5-5 6.1l-2.5 2.2 4.5 1.2c15.1 4.1 22 14 21.5 31-.3 13.3-4.7 21.5-15 28.3-4.3 2.8-17.2 7.4-23.9 8.6-3.7.6-4.1.9-4.1 3.6.1 3.3 1.1 12.5 2 19.2.7 4.8.9 4.7-9.7 5.8-4.4.5-5.8.3-5.9-.7 0-.7-.2-2.2-.4-3.3-.2-1.1-.7-4.5-1-7.5-.4-3-.8-6.4-1-7.5-.1-1.1-.3-3-.4-4.3-.1-2.1-.4-2.2-5.3-1.6-7.7.8-7.9.9-7.3 4.6.6 4.4 3.3 26 4 32.3.3 2.7.7 6.6 1 8.5.2 1.9.7 5.7 1 8.5.3 2.7.7 5.7.8 6.5.4 2.4 1.7 3.9 3 3.5 2.5-.9 9.7-1.3 10.1-.6.3.4.8 4.3 1.1 8.7l.7 7.9-4.7.3c-6.1.3-6.7.7-6.1 4.5.3 1.8.8 6.3 1.1 10.2.4 3.8.9 7.2 1 7.5.2.3.6 3.5 1 7 1.5 15.6 2.4 19.5 4.6 21.3 2.1 1.7 6.3 1.8 8.8.3 1.3-.8 1.8 1.4 2.6 10.2l.7 7.2-3.9 1.6c-5.8 2.5-15.8 2.7-20.9.5-4.3-1.9-8.5-6.6-10.4-11.6-1-2.7-3-15.5-4.5-28.6-.3-3.1-.7-6.5-.9-7.5-.4-2.1-1.8-15.1-1.9-17.2 0-1.3-1.1-1.5-6.8-1.2l-3.7.1-.7-5.8c-1.4-12.4-1.6-11.3 2.1-11.4 1.9-.1 3.9-.3 4.4-.4.6-.1 1.5-.3 2.1-.4.6 0 .8-.9.5-1.9-.2-.9-.7-4.6-1.1-8.2-.4-3.6-.8-7.6-1-9-.2-1.4-.6-5-.9-8-.4-3-.9-6.9-1.1-8.5-.7-4.8-1.3-9.5-2.1-17-.7-7.6-2-11.9-3.1-11.2-.8.5-4.4 1-15.3 2.3-2.5.3-5.8.8-7.4 1l-2.8.5.5-9.6c.2-5.3.6-9.7.8-9.9.3-.3 9.6-1.5 12.1-1.6 2 0 4.8-4.6 4.4-7-.3-1.4-.8-5.2-1.1-8.5-.3-3.3-.8-7.5-1.1-9.3-1-7.8-1.3-10.3-2.4-19.7-.6-5.5-1.3-11.4-1.5-13-.3-1.7-.7-5.7-1.1-9-.4-3.3-.8-6.7-1-7.5-.1-.8-.3-2.3-.3-3.3-.1-1-1.2-2.9-2.6-4.3-2.4-2.4-2.9-2.5-10.9-1.9l-8.3.7-1-7.9c-.6-4.3-.9-8.1-.7-8.4.2-.4 5.4-1.2 11.6-1.9 6.2-.7 12-1.4 12.8-1.6.8-.1 2.8-.3 4.4-.3l2.9-.1-.8-7.2c-1.1-11.6-1.5-15.2-2.1-17.1-.3-.9.1-1.9.8-2.2 2.5-.9 13.7-2.2 14.6-1.6.5.3 1.2 3.5 1.6 7.1 1.2 11.9 1.8 16.5 2.2 17.2.5.8 10.6-.2 11.6-1.1.5-.4.1-6-.7-12.6-.8-6.5-1.3-12.1-1-12.3.4-.4 9.6-1.9 13.3-2.1 1.2 0 2.2.2 2.3.6zm440.3 7.3c8.3 4 13.2 15.2 15.1 34.6.3 3.3.7 7.1 1 8.5.2 1.3.6 5.1 1 8.4.3 3.3 1.1 9.4 1.6 13.5 2.4 18.4 2.4 18.5-.3 18.7-1.4.2-6.2.7-10.9 1.2-4.6.5-8.6.7-8.8.5-.6-.6-.9-2.5-1.6-8.9-.3-2.8-.7-6.6-1-8.5-1.9-14.6-3.2-25.2-4-33-1-8.8-2.4-12.7-5.3-15-3.9-3.2-9.8-2.2-13.4 2.1-1.5 1.8-2.6 3.5-2.4 3.8.3.6.7 3.5 2.1 16.1.3 2.5 1 7.9 1.5 12s1.2 10.2 1.5 13.5c.4 3.3.8 6.7 1 7.5 1 3.9 1.6 14 .8 13.8-.7-.2-5.8.3-18.5 1.8-3.6.4-3.8.3-3.9-2.3 0-1.5-.2-3.7-.4-4.8-.2-1.1-.6-4.5-.9-7.5-.5-5.1-.9-8.1-2.1-17-.2-1.9-1.4-11.2-2.5-20.5-4.6-37.5-4.8-33.8 2-34.7 3-.3 7.6-.9 10.2-1.2l4.7-.7 1.1 4 1 3.9 4.3-4.4c2.3-2.5 6-5.1 8.2-5.9 5.9-2.1 14.1-1.9 18.9.5zm-350.8 8.8c6 4.4 6.3 15 .5 19.2-11.1 7.8-24.3-2.4-19.2-14.9 2.6-6 13-8.5 18.7-4.3zm274.5-.9c.2.6.2 1.3 1.3 10.6.4 3.3.9 6.9 1.1 8 .2 1.1.7 4.5 1 7.5.3 3 .8 7.1 1 9 .3 1.9.7 5.7 1 8.5.3 2.7 1 8.6 1.6 13 1.5 12.3 1.8 14.5 2.5 21 .3 3.3.7 6.4.8 6.9.1 1.2-4.8 2.3-13.8 3.1-3.8.3-7.3.8-7.7 1.1-.9.5-1.7-3-2.4-10.6-.5-5.7-1.1-10.4-2.1-18-.3-2.5-.7-5.9-.9-7.5-.3-1.7-1.1-9.1-2-16.5-.9-7.4-1.8-14.6-2-16-.2-1.4-.6-5.2-1-8.5-.3-3.3-.8-6.8-1.1-7.8-.4-1.2 0-1.7 1.3-1.8 1 0 2.7-.2 3.8-.4 1.1-.3 4.7-.7 8-1.1 3.3-.3 6.1-.7 6.3-.9.5-.4 3.2-.1 3.3.4zM323.4 232c1.1 11.2 1.7 13.1 3.5 12.6 1.6-.5 6.7-.9 8.8-.7 1.1.1 2.9 13.3 2.1 15.6-.1.5-1.6 1.1-3.3 1.3-7.2.6-7.6 1-7.1 5 .6 3.7.9 6.4 2.2 17.7.3 3.3.8 6.2.9 6.5.2.3.6 3.9 1 8 1.2 13.5 2.8 15.9 10 14.6 4-.8 4.1-.4 5 9.9l.6 7-4.5 1.7c-2.9 1.1-7 1.6-11.9 1.5-6.7-.2-7.9-.5-11.4-3.3-5.9-4.7-8.7-11.2-9.8-22.9-.3-2.8-.8-6.8-1.1-9-.3-2.2-.7-5.1-.9-6.5-.2-1.4-.9-7-1.5-12.5-1.6-15.2-1.2-14.3-6.5-13.5-2.5.4-4.7.4-4.9.1-.2-.3-.7-3.1-1-6.1-.4-3-.9-6.7-1.2-8.1-.4-2.1-.1-2.6 1.3-2.6 1 0 3.3-.1 5.2-.2l3.4-.1-.7-6.3c-.4-3.4-1-8.3-1.3-11-.4-4.1-.3-4.7 1.3-4.8 1.1 0 2.7-.2 3.7-.4s4.8-.6 8.5-1c3.6-.3 6.9-.8 7.1-1.1 1-.9 1.9 2.2 2.5 8.6zm159.9-4c12.7 4.8 21.2 18.7 23.3 38.1 2.4 22.5-1.6 35.5-13.3 43.7-9.3 6.5-26 8-35.7 3.2-9.2-4.6-15.2-12.8-18.5-25.1-8.4-31.6-.9-53.8 20.4-60.5 6.4-2 17.6-1.7 23.8.6zm-83.6 9.1c9 2.9 16 10.8 18.9 21.7 1 3.4 1.5 6.4 1.3 6.6-.7.7-5.6 1.5-12.9 2.2-3.5.3-6.8.8-7.2 1-.3.2-.9-1-1.3-2.8-.4-1.8-1.8-5-3.1-7.1-2.2-3.4-2.8-3.7-6.9-3.7-3.2 0-5.1.6-7.2 2.4-2.7 2.4-2.8 2.7-2.8 12.8.1 11.7.9 18.9 3.1 26.8 1.9 6.7 3.6 8.8 8.1 9.6 6.7 1.3 12.3-3.5 12.3-10.6 0-1.6.3-3 .8-3.1.4 0 1.6-.2 2.7-.5 1.1-.2 4.7-.6 8-.9 3.3-.4 6.8-.9 7.8-1.1 1.2-.4 1.7.1 1.8 1.8.6 9.2-1.5 16.1-6.6 22.4-6.5 7.9-15.4 11.5-27.3 11-18.8-.8-30-14.2-32.8-39.4-1-7.9-.9-21.5 0-25.6 3.1-13.4 12-21.7 26-24.3 1.1-.2 2.1-.5 2.3-.7.7-.7 11.6.3 15 1.5zm-123.3 15.6c.2 1 .8 4.7 1.1 8.3.4 3.6.9 7.8 1.1 9.5.2 1.6.6 5.2.9 8 .4 2.7.8 6.1 1 7.5.2 1.4.6 5 1 8 .3 3 .8 7.1 1 9 .2 1.9.9 7.1 1.4 11.5.6 4.4 1.3 10.5 1.6 13.5.3 3 .8 6.3 1.1 7.2.3 1.1 0 1.8-.8 1.9-1.4.1-2.9.3-14.2 1.9-3.8.6-7 .9-7.3.7-.2-.2-.6-2.2-.8-4.3-.3-2.2-.7-5.3-1-6.9-.2-1.7-1.1-9.3-2-17-.8-7.7-2-17.2-2.5-21-.5-3.9-1.2-9.5-1.5-12.5-.3-3-.8-6.2-1-7-.2-.8-.7-4.6-1-8.5-.4-3.8-.8-7.2-1.1-7.6-.8-1.3 1.2-1.9 8.2-2.5 3.8-.3 7.1-.8 7.3-1 .2-.2 1.9-.4 3.7-.4 2.3 0 3.4.5 3.8 1.7zm119.1 105.9c4.3 2.8 5.9 9.7 3.6 15.2-2.3 5.6-11.9 8.6-17.4 5.3-5.9-3.3-7.7-12.5-3.7-18.1 3.3-4.7 12.2-5.9 17.5-2.4zm-42 7.6c.4 4 .9 8.2 1.1 9.3.2 1.1.6 4.5.9 7.5 1 9.3 1.4 13.3 1.9 17.5.3 2.2 1 7.8 1.6 12.5.5 4.7 1.2 9.6 1.4 11 .3 1.4.7 5.2 1 8.5.3 3.3.8 7.8 1.1 10 2.1 15.8 4.5 36.3 4.5 37.6 0 .9-.6 1.6-1.2 1.6-.7 0-4 .4-7.3.8-11.7 1.4-11.8 1.4-12.8-2.7l-.9-3.6-4.6 4.8c-5 5.1-9.6 7-16.7 7-14.6-.2-25-13.1-28.1-34.5-.3-2.2-.9-6.3-1.3-9.2-.4-2.9-.7-9.4-.5-14.5.3-11.5 2.8-19 8.4-24.6 7.1-7.1 20.8-9.3 27.8-4.4 4.7 3.2 5.1 3.4 4.8 1.5-.2-1-.7-4.7-1.1-8.3-.4-3.6-1.3-11.4-2.1-17.4-2.1-16.5-2.6-15.2 5.9-16.2 3.9-.5 9.1-1.1 11.3-1.2l4.2-.3.7 7.3zm123.4 18.3c13.7 7.6 20.4 22.9 20.4 47.5.1 10.8-.2 13.3-2.3 18.5-5.4 13.7-18.3 21.3-34.9 20.3-18-1-29.5-14.1-32.7-37.3-2-14.4-.9-26.7 3.2-34.7 6.2-12.2 16.5-17.8 32.4-17.4 7.3.1 9.2.5 13.9 3.1zm-73.4 16.6c.8 6.3 1.7 13.6 2 16.4.3 2.7.7 6.3.9 8 .2 1.6.7 5.5 1 8.5.4 3 .9 6.6 1.1 8 .2 1.4.7 5 1 8 .3 3 .8 7.1 1 9 .2 1.9.7 6 1.1 9 .3 3 .8 5.8 1 6.2.6 1-1.4 2-4.5 2.3-7.6.8-14.8 1.7-16.3 2.1-1 .3-1.8.2-1.9-.3 0-.4-.2-1.5-.3-2.3-.2-.8-.6-4.2-1-7.5s-.9-7.6-1.1-9.5c-.9-7.2-1.5-11.7-2.5-20.5-.6-5-1.3-10.1-1.5-11.5-.2-1.4-.7-5.2-1-8.5-.7-6-.9-7.4-2-17-.4-2.8-.7-5.9-.8-6.9-.2-2.3 2.6-3.1 13.8-4.2 3.9-.3 7.2-.8 7.4-1 .9-.8 1.1.5 2.6 11.7zm-293.8-4.6c11.3 3.7 20.3 14.5 22.8 27.4.5 2.5-.1 2.8-7.5 3.6-3 .3-7.9.8-10.7 1.1-4.7.6-5.3.4-5.3-1.2 0-3.9-4.1-10.2-7.7-11.9-7.3-3.5-16.6.5-18.3 7.9-1.2 5.4-.3 9 3.1 12.6 3.3 3.4 7.2 5.2 18.8 8.6 17.5 5.2 25.8 11 30.7 21.7 2.6 5.5 2.9 7.3 2.9 16.2 0 11.4-1.5 15.3-8.1 21.7-11.1 10.9-31.8 13.7-48.4 6.6-8.7-3.8-17.8-15.8-19.5-25.9l-.7-3.7 8.9-1.1c4.8-.7 10.1-1.4 11.6-1.6 1.6-.2 3 .2 3.1.8 2 7.1 3.4 10.4 5.3 12.3 5.6 5.6 18.9 5 22.8-1 2.1-3.2 2.1-11.5.1-15.4-2.5-4.9-6.2-7-18.5-10.8-16.9-5.3-24.3-9.5-30.3-17.5-5.8-7.5-7.6-20-4.3-29.8 3.6-10.9 16.4-20.2 30-21.8 2.8-.3 5.1-.6 5.3-.8.7-.6 10.2.8 13.9 2zm161.8 10.7c.2 1.3.7 4.8 1 7.8.3 3 .7 7.1 1 9 .2 1.9.7 5.7 1 8.5.7 5.8.9 8 2.9 24 1.8 14.4 2.5 19.8 3.5 28.6l.7 6.7-4.6.6c-2.5.3-7.3.8-10.6 1.2l-6.1.6-.7-3.5-.7-3.6-3.5 3.9c-8.3 9.1-24.1 9.9-32.7 1.5-5.4-5.2-8.7-13.9-10.1-26.5-.3-2.5-.9-7.9-1.5-12-.5-4.1-1.3-10.7-1.6-14.5-.4-3.9-.9-7.9-1.1-9-.2-1.1-.7-4.5-1-7.5-.3-3-.7-6.5-.9-7.8-.3-1.5.1-2.2 1.3-2.3.9 0 2.6-.2 3.7-.4s4.7-.7 8-1c3.3-.3 6.8-.9 7.8-1.1 1.2-.4 1.7.1 1.8 1.8 0 1.3.2 3.2.4 4.3.2 1.1.7 4.9 1.1 8.5.3 3.5.8 7.3 1 8.3.2 1.1.6 4.5 1 7.6 1.1 10.3 3.3 27.6 3.8 29.7 1.1 5.1 5.4 8.7 9.4 7.9 6.2-1.2 10.7-6.3 9.8-11-.2-1.1-.7-4.9-1.1-8.5-.4-3.6-.9-7.2-1-8-.1-.8-.6-4.4-1-8-.3-3.6-.8-7.9-1-9.5-.3-1.7-.7-5.5-1-8.5-.4-3-1-8.1-1.4-11.3-.7-4.8-.5-5.7.8-5.8.9 0 2.5-.2 3.6-.4s4.9-.7 8.5-1.1c3.6-.3 6.7-.8 6.9-1 1-1 2.1-.2 2.6 1.8z"/><path d="M165.8 249.5c-.2.2-2.1.5-4.2.7-2 .1-3.9.5-4.2.9-.2.4 0 3.8.5 7.6.6 3.7 1.3 9.3 1.6 12.3.7 6.3 1.5 11.3 1.9 11.7.9.9 19.4-3.1 23.8-5.1 6.9-3.2 8.5-4.6 10.1-8.7 2.6-6.5.2-13.2-6-17.1-3.2-1.9-5.3-2.3-13.4-2.5-5.3-.1-9.8 0-10.1.2zM181.8 296.5c-.2.1-3.2.5-6.8.9-3.6.3-7.4.8-8.5 1-1.1.3-2.4.5-2.9.5-.5.1-.5 2.5-.1 5.3.4 2.9.9 7.1 1.1 9.3.2 2.2.8 7.3 1.4 11.3.5 4 1 7.8 1 8.3 0 1 5 .6 15.5-1.2 12.6-2.1 21.5-6.2 24.9-11.4 2.7-4.1 2.8-10.3.3-14.8-2.4-4.4-4.8-6.1-10.6-7.7-3.7-1-14.7-2-15.3-1.5zM463.5 247.3c-3.2 2.7-5.4 10.4-4.9 16.7 1.1 13.3 2.1 19.2 4.4 24.4 3.3 7.9 9.8 10.6 16.1 6.9 4.2-2.5 5.4-6.5 5.3-17.3-.1-16.2-3.9-28.6-9.5-31.5-4.1-2.2-8.4-1.8-11.4.8zM322.2 417.4c-4.3 2.3-5.6 5.4-5.6 14-.1 18.5 3.6 33 9 35.5 4.8 2.1 9.3 1.4 12.9-2.2l3.2-3.2-1.8-15c-2.9-25-2.9-24.8-5.4-27.4-2.7-2.7-8.8-3.6-12.3-1.7zM455.4 401.1c-4.1 2.1-5.9 6.8-6.1 15.9-.1 4.7.3 10.7.8 13.5.5 2.7 1.2 6.3 1.5 7.9.7 4.2 4.1 10.2 6.6 12 5.5 3.9 13.6.8 15.8-5.9 3.2-9.7-.3-33.8-5.9-40.5-2.9-3.5-8.9-4.8-12.7-2.9z"/></svg>